<mxfile host="65bd71144e">
    <diagram id="SeFAa-bu8-BPE_0USOzj" name="Page-1">
        <mxGraphModel dx="2142" dy="908" grid="1" gridSize="10" guides="1" tooltips="1" connect="1" arrows="1" fold="1" page="1" pageScale="1" pageWidth="850" pageHeight="1100" math="0" shadow="0">
            <root>
                <mxCell id="0"/>
                <mxCell id="1" parent="0"/>
                <mxCell id="3" value="" style="rounded=0;whiteSpace=wrap;html=1;" parent="1" vertex="1">
                    <mxGeometry x="320" y="200" width="230" height="240" as="geometry"/>
                </mxCell>
                <mxCell id="10" value="Cloud" style="text;html=1;strokeColor=none;fillColor=none;align=center;verticalAlign=middle;whiteSpace=wrap;rounded=0;" parent="1" vertex="1">
                    <mxGeometry x="405" y="200" width="60" height="30" as="geometry"/>
                </mxCell>
                <mxCell id="11" value="" style="rounded=0;whiteSpace=wrap;html=1;" parent="1" vertex="1">
                    <mxGeometry x="330" y="230" width="210" height="80" as="geometry"/>
                </mxCell>
                <mxCell id="12" value="AWS" style="text;html=1;strokeColor=none;fillColor=none;align=center;verticalAlign=middle;whiteSpace=wrap;rounded=0;" parent="1" vertex="1">
                    <mxGeometry x="405" y="230" width="60" height="30" as="geometry"/>
                </mxCell>
                <mxCell id="33" style="edgeStyle=none;html=1;exitX=1;exitY=0.5;exitDx=0;exitDy=0;entryX=0;entryY=0.5;entryDx=0;entryDy=0;startArrow=classic;startFill=1;" parent="1" source="13" target="32" edge="1">
                    <mxGeometry relative="1" as="geometry"/>
                </mxCell>
                <UserObject label="EB &lt;br&gt;REST API" link="https://github.com/metrotech-sk/xerxes-web" id="13">
                    <mxCell style="rounded=0;whiteSpace=wrap;html=1;" parent="1" vertex="1">
                        <mxGeometry x="340" y="260" width="80" height="40" as="geometry"/>
                    </mxCell>
                </UserObject>
                <mxCell id="27" value="" style="group" parent="1" vertex="1" connectable="0">
                    <mxGeometry x="-110" y="200" width="310" height="100" as="geometry"/>
                </mxCell>
                <mxCell id="18" value="" style="rounded=0;whiteSpace=wrap;html=1;" parent="27" vertex="1">
                    <mxGeometry width="310" height="100" as="geometry"/>
                </mxCell>
                <mxCell id="19" value="RS485&lt;br&gt;adapter" style="rounded=0;whiteSpace=wrap;html=1;" parent="27" vertex="1">
                    <mxGeometry x="10" y="30" width="60" height="60" as="geometry"/>
                </mxCell>
                <mxCell id="20" value="Linux system" style="text;html=1;strokeColor=none;fillColor=none;align=center;verticalAlign=middle;whiteSpace=wrap;rounded=0;" parent="27" vertex="1">
                    <mxGeometry x="112.5" width="85" height="30" as="geometry"/>
                </mxCell>
                <mxCell id="23" style="edgeStyle=none;html=1;exitX=0;exitY=0.75;exitDx=0;exitDy=0;entryX=1;entryY=0.75;entryDx=0;entryDy=0;" parent="27" source="21" target="19" edge="1">
                    <mxGeometry relative="1" as="geometry"/>
                </mxCell>
                <mxCell id="56" style="edgeStyle=none;html=1;exitX=1;exitY=0.5;exitDx=0;exitDy=0;entryX=0;entryY=0.5;entryDx=0;entryDy=0;startArrow=classic;startFill=1;" parent="27" source="21" target="24" edge="1">
                    <mxGeometry relative="1" as="geometry"/>
                </mxCell>
                <UserObject label="xerxes-protocol&lt;br&gt;python3" link="https://github.com/metrotech-sk/xerxes-protocol" id="21">
                    <mxCell style="rounded=0;whiteSpace=wrap;html=1;" parent="27" vertex="1">
                        <mxGeometry x="90" y="30" width="100" height="60" as="geometry"/>
                    </mxCell>
                </UserObject>
                <mxCell id="22" style="edgeStyle=none;html=1;exitX=1;exitY=0.25;exitDx=0;exitDy=0;entryX=0;entryY=0.25;entryDx=0;entryDy=0;" parent="27" source="19" target="21" edge="1">
                    <mxGeometry relative="1" as="geometry"/>
                </mxCell>
                <UserObject label="xerxes-node" link="https://github.com/metrotech-sk/xerxes-node" id="24">
                    <mxCell style="rounded=0;whiteSpace=wrap;html=1;" parent="27" vertex="1">
                        <mxGeometry x="220" y="30" width="80" height="60" as="geometry"/>
                    </mxCell>
                </UserObject>
                <mxCell id="28" style="edgeStyle=none;html=1;exitX=1;exitY=0.5;exitDx=0;exitDy=0;entryX=0;entryY=0.25;entryDx=0;entryDy=0;startArrow=classic;startFill=1;" parent="1" source="24" target="13" edge="1">
                    <mxGeometry relative="1" as="geometry"/>
                </mxCell>
                <mxCell id="38" value="WIFI / LTE" style="edgeLabel;html=1;align=center;verticalAlign=middle;resizable=0;points=[];" parent="28" vertex="1" connectable="0">
                    <mxGeometry x="-0.4845" y="1" relative="1" as="geometry">
                        <mxPoint x="21" y="3" as="offset"/>
                    </mxGeometry>
                </mxCell>
                <mxCell id="32" value="Secrets" style="rounded=0;whiteSpace=wrap;html=1;" parent="1" vertex="1">
                    <mxGeometry x="450" y="260" width="80" height="40" as="geometry"/>
                </mxCell>
                <mxCell id="37" value="" style="group" parent="1" vertex="1" connectable="0">
                    <mxGeometry x="330" y="340" width="210" height="90" as="geometry"/>
                </mxCell>
                <mxCell id="6" value="" style="rounded=0;whiteSpace=wrap;html=1;" parent="37" vertex="1">
                    <mxGeometry width="210" height="90" as="geometry"/>
                </mxCell>
                <UserObject label="Data" link="https://cloud.mongodb.com/v2/6122cfbd973c370746813bc8#/metrics/replicaSet/63e0eba3636fc72618ef7331/explorer" id="7">
                    <mxCell style="rounded=0;whiteSpace=wrap;html=1;" parent="37" vertex="1">
                        <mxGeometry x="10" y="30" width="80" height="50" as="geometry"/>
                    </mxCell>
                </UserObject>
                <mxCell id="9" value="MongoDB" style="text;html=1;strokeColor=none;fillColor=none;align=center;verticalAlign=middle;whiteSpace=wrap;rounded=0;" parent="37" vertex="1">
                    <mxGeometry x="75" width="60" height="30" as="geometry"/>
                </mxCell>
                <UserObject label="API Keys" link="https://cloud.mongodb.com/v2/6122cfbd973c370746813bc8#/metrics/replicaSet/63e0eba3636fc72618ef7331/explorer/security/access_tokens/find" id="14">
                    <mxCell style="rounded=0;whiteSpace=wrap;html=1;" parent="37" vertex="1">
                        <mxGeometry x="120" y="30" width="80" height="50" as="geometry"/>
                    </mxCell>
                </UserObject>
                <mxCell id="15" style="edgeStyle=none;html=1;exitX=0.5;exitY=1;exitDx=0;exitDy=0;entryX=0.5;entryY=0;entryDx=0;entryDy=0;startArrow=classic;startFill=1;" parent="1" source="13" target="7" edge="1">
                    <mxGeometry relative="1" as="geometry"/>
                </mxCell>
                <mxCell id="34" style="edgeStyle=none;html=1;exitX=1;exitY=1;exitDx=0;exitDy=0;entryX=0.5;entryY=0;entryDx=0;entryDy=0;startArrow=classic;startFill=1;" parent="1" source="13" target="14" edge="1">
                    <mxGeometry relative="1" as="geometry"/>
                </mxCell>
                <mxCell id="62" value="" style="group" parent="1" vertex="1" connectable="0">
                    <mxGeometry x="-110" y="330" width="310" height="110" as="geometry"/>
                </mxCell>
                <mxCell id="39" value="" style="rounded=0;whiteSpace=wrap;html=1;" parent="62" vertex="1">
                    <mxGeometry width="310" height="110" as="geometry"/>
                </mxCell>
                <mxCell id="40" value="RS485&lt;br&gt;adapter" style="rounded=0;whiteSpace=wrap;html=1;" parent="62" vertex="1">
                    <mxGeometry x="10" y="40" width="60" height="60" as="geometry"/>
                </mxCell>
                <UserObject label="xerxes-protocol&lt;br&gt;C++" link="https://github.com/metrotech-sk/xerxes-protocol-cpp" id="42">
                    <mxCell style="rounded=0;whiteSpace=wrap;html=1;" parent="62" vertex="1">
                        <mxGeometry x="90" y="40" width="100" height="60" as="geometry"/>
                    </mxCell>
                </UserObject>
                <mxCell id="44" value="Embedded" style="text;html=1;strokeColor=none;fillColor=none;align=center;verticalAlign=middle;whiteSpace=wrap;rounded=0;" parent="62" vertex="1">
                    <mxGeometry x="125" y="4" width="60" height="30" as="geometry"/>
                </mxCell>
                <UserObject label="xerxes-sim-bridge" link="https://github.com/metrotech-sk/xerxes-sim-bridge" id="55">
                    <mxCell style="rounded=0;whiteSpace=wrap;html=1;" parent="62" vertex="1">
                        <mxGeometry x="220" y="40" width="80" height="60" as="geometry"/>
                    </mxCell>
                </UserObject>
                <mxCell id="41" style="edgeStyle=none;html=1;exitX=0;exitY=0.75;exitDx=0;exitDy=0;entryX=1;entryY=0.75;entryDx=0;entryDy=0;" parent="62" source="42" target="40" edge="1">
                    <mxGeometry relative="1" as="geometry"/>
                </mxCell>
                <mxCell id="43" style="edgeStyle=none;html=1;exitX=1;exitY=0.25;exitDx=0;exitDy=0;entryX=0;entryY=0.25;entryDx=0;entryDy=0;" parent="62" source="40" target="42" edge="1">
                    <mxGeometry relative="1" as="geometry"/>
                </mxCell>
                <mxCell id="57" style="edgeStyle=none;html=1;exitX=1;exitY=0.5;exitDx=0;exitDy=0;entryX=0;entryY=0.5;entryDx=0;entryDy=0;startArrow=classic;startFill=1;" parent="62" source="42" target="55" edge="1">
                    <mxGeometry relative="1" as="geometry"/>
                </mxCell>
                <mxCell id="58" style="edgeStyle=none;html=1;exitX=1;exitY=0.5;exitDx=0;exitDy=0;entryX=0;entryY=0.75;entryDx=0;entryDy=0;startArrow=classic;startFill=1;" parent="1" source="55" target="13" edge="1">
                    <mxGeometry relative="1" as="geometry"/>
                </mxCell>
                <mxCell id="59" value="LTE / NBIoT" style="edgeLabel;html=1;align=center;verticalAlign=middle;resizable=0;points=[];" parent="58" vertex="1" connectable="0">
                    <mxGeometry x="0.2862" y="-1" relative="1" as="geometry">
                        <mxPoint x="-24" y="23" as="offset"/>
                    </mxGeometry>
                </mxCell>
                <mxCell id="66" value="RS485" style="edgeStyle=none;html=1;exitX=1;exitY=0.5;exitDx=0;exitDy=0;entryX=0;entryY=0.5;entryDx=0;entryDy=0;startArrow=classic;startFill=1;" parent="1" source="64" target="19" edge="1">
                    <mxGeometry x="-0.1724" relative="1" as="geometry">
                        <mxPoint as="offset"/>
                    </mxGeometry>
                </mxCell>
                <UserObject label="xerxes-rp2040 sensor" link="https://github.com/metrotech-sk/xerxes-rp2040" id="64">
                    <mxCell style="rounded=0;whiteSpace=wrap;html=1;" parent="1" vertex="1">
                        <mxGeometry x="-260" y="230" width="90" height="60" as="geometry"/>
                    </mxCell>
                </UserObject>
                <mxCell id="67" style="edgeStyle=none;html=1;exitX=1;exitY=0.5;exitDx=0;exitDy=0;entryX=0;entryY=0.5;entryDx=0;entryDy=0;startArrow=classic;startFill=1;" parent="1" source="68" target="64" edge="1">
                    <mxGeometry relative="1" as="geometry">
                        <mxPoint x="-260.0000000000002" y="260.0000000000001" as="targetPoint"/>
                    </mxGeometry>
                </mxCell>
                <UserObject label="xerxes-rp2040 sensor" link="https://github.com/metrotech-sk/xerxes-rp2040" id="68">
                    <mxCell style="rounded=0;whiteSpace=wrap;html=1;" parent="1" vertex="1">
                        <mxGeometry x="-390" y="230" width="90" height="60" as="geometry"/>
                    </mxCell>
                </UserObject>
                <UserObject label="xerxes-rp2040 sensor" link="https://github.com/metrotech-sk/xerxes-rp2040" id="70">
                    <mxCell style="rounded=0;whiteSpace=wrap;html=1;" parent="1" vertex="1">
                        <mxGeometry x="-530" y="230" width="90" height="60" as="geometry"/>
                    </mxCell>
                </UserObject>
                <mxCell id="71" style="edgeStyle=none;html=1;exitX=1;exitY=0.5;exitDx=0;exitDy=0;startArrow=classic;startFill=1;" parent="1" source="72" edge="1">
                    <mxGeometry relative="1" as="geometry">
                        <mxPoint x="-100" y="400" as="targetPoint"/>
                    </mxGeometry>
                </mxCell>
                <mxCell id="77" value="RS485" style="edgeLabel;html=1;align=center;verticalAlign=middle;resizable=0;points=[];" parent="71" vertex="1" connectable="0">
                    <mxGeometry x="-0.4743" y="-1" relative="1" as="geometry">
                        <mxPoint x="12" y="-1" as="offset"/>
                    </mxGeometry>
                </mxCell>
                <UserObject label="xerxes-rp2040 sensor" link="https://github.com/metrotech-sk/xerxes-rp2040" id="72">
                    <mxCell style="rounded=0;whiteSpace=wrap;html=1;" parent="1" vertex="1">
                        <mxGeometry x="-260" y="370" width="90" height="60" as="geometry"/>
                    </mxCell>
                </UserObject>
                <mxCell id="73" style="edgeStyle=none;html=1;exitX=1;exitY=0.5;exitDx=0;exitDy=0;entryX=0;entryY=0.5;entryDx=0;entryDy=0;startArrow=classic;startFill=1;" parent="1" source="74" target="72" edge="1">
                    <mxGeometry relative="1" as="geometry">
                        <mxPoint x="-260.0000000000002" y="400.0000000000001" as="targetPoint"/>
                    </mxGeometry>
                </mxCell>
                <UserObject label="xerxes-rp2040 sensor" link="https://github.com/metrotech-sk/xerxes-rp2040" id="74">
                    <mxCell style="rounded=0;whiteSpace=wrap;html=1;" parent="1" vertex="1">
                        <mxGeometry x="-390" y="370" width="90" height="60" as="geometry"/>
                    </mxCell>
                </UserObject>
                <UserObject label="xerxes-rp2040 sensor" link="https://github.com/metrotech-sk/xerxes-rp2040" id="76">
                    <mxCell style="rounded=0;whiteSpace=wrap;html=1;" parent="1" vertex="1">
                        <mxGeometry x="-530" y="370" width="90" height="60" as="geometry"/>
                    </mxCell>
                </UserObject>
                <mxCell id="78" value="" style="group" parent="1" vertex="1" connectable="0">
                    <mxGeometry x="320" y="505" width="120" height="95" as="geometry"/>
                </mxCell>
                <mxCell id="29" value="" style="rounded=0;whiteSpace=wrap;html=1;" parent="78" vertex="1">
                    <mxGeometry width="120" height="95" as="geometry"/>
                </mxCell>
                <mxCell id="86" value="" style="edgeStyle=none;html=1;" parent="78" source="30" target="31" edge="1">
                    <mxGeometry relative="1" as="geometry"/>
                </mxCell>
                <mxCell id="30" value="Client" style="text;html=1;strokeColor=none;fillColor=none;align=center;verticalAlign=middle;whiteSpace=wrap;rounded=0;" parent="78" vertex="1">
                    <mxGeometry x="60" width="60" height="30" as="geometry"/>
                </mxCell>
                <UserObject label="Mongo Charts" link="https://charts.mongodb.com/charts-xerxes-lgqel/public/dashboards/28b475cb-410d-4b2e-af52-4247a57b557d" id="31">
                    <mxCell style="rounded=0;whiteSpace=wrap;html=1;" parent="78" vertex="1">
                        <mxGeometry x="10" y="30" width="100" height="55" as="geometry"/>
                    </mxCell>
                </UserObject>
                <mxCell id="79" value="" style="group" parent="1" vertex="1" connectable="0">
                    <mxGeometry x="480" y="505" width="120" height="95" as="geometry"/>
                </mxCell>
                <mxCell id="80" value="" style="rounded=0;whiteSpace=wrap;html=1;" parent="79" vertex="1">
                    <mxGeometry width="120" height="95" as="geometry"/>
                </mxCell>
                <mxCell id="81" value="Client" style="text;html=1;strokeColor=none;fillColor=none;align=center;verticalAlign=middle;whiteSpace=wrap;rounded=0;" parent="79" vertex="1">
                    <mxGeometry x="60" width="60" height="30" as="geometry"/>
                </mxCell>
                <mxCell id="82" value="Mongo Charts" style="rounded=0;whiteSpace=wrap;html=1;" parent="79" vertex="1">
                    <mxGeometry x="10" y="30" width="100" height="55" as="geometry"/>
                </mxCell>
                <mxCell id="83" style="edgeStyle=none;html=1;exitX=0.25;exitY=0;exitDx=0;exitDy=0;entryX=0.75;entryY=1;entryDx=0;entryDy=0;startArrow=classic;startFill=1;" parent="1" source="80" target="7" edge="1">
                    <mxGeometry relative="1" as="geometry"/>
                </mxCell>
                <mxCell id="63" style="edgeStyle=none;html=1;exitX=0.5;exitY=0;exitDx=0;exitDy=0;entryX=0.5;entryY=1;entryDx=0;entryDy=0;startArrow=classic;startFill=1;" parent="1" source="31" target="7" edge="1">
                    <mxGeometry relative="1" as="geometry"/>
                </mxCell>
                <mxCell id="84" value="" style="endArrow=none;dashed=1;html=1;dashPattern=1 3;strokeWidth=2;exitX=1;exitY=0.5;exitDx=0;exitDy=0;entryX=0;entryY=0.5;entryDx=0;entryDy=0;" parent="1" source="70" target="68" edge="1">
                    <mxGeometry width="50" height="50" relative="1" as="geometry">
                        <mxPoint x="-470" y="270" as="sourcePoint"/>
                        <mxPoint x="-420" y="220" as="targetPoint"/>
                    </mxGeometry>
                </mxCell>
                <mxCell id="85" value="" style="endArrow=none;dashed=1;html=1;dashPattern=1 3;strokeWidth=2;exitX=1;exitY=0.5;exitDx=0;exitDy=0;entryX=0;entryY=0.5;entryDx=0;entryDy=0;" parent="1" source="76" target="74" edge="1">
                    <mxGeometry width="50" height="50" relative="1" as="geometry">
                        <mxPoint x="-470" y="270" as="sourcePoint"/>
                        <mxPoint x="-380" y="270" as="targetPoint"/>
                    </mxGeometry>
                </mxCell>
                <mxCell id="87" value="" style="edgeStyle=none;html=1;" parent="1" source="29" target="7" edge="1">
                    <mxGeometry relative="1" as="geometry"/>
                </mxCell>
                <mxCell id="88" value="" style="group" parent="1" vertex="1" connectable="0">
                    <mxGeometry x="160" y="503" width="120" height="95" as="geometry"/>
                </mxCell>
                <mxCell id="89" value="" style="rounded=0;whiteSpace=wrap;html=1;" parent="88" vertex="1">
                    <mxGeometry width="120" height="95" as="geometry"/>
                </mxCell>
                <mxCell id="90" value="" style="edgeStyle=none;html=1;" parent="88" source="91" target="92" edge="1">
                    <mxGeometry relative="1" as="geometry"/>
                </mxCell>
                <mxCell id="91" value="Client" style="text;html=1;strokeColor=none;fillColor=none;align=center;verticalAlign=middle;whiteSpace=wrap;rounded=0;" parent="88" vertex="1">
                    <mxGeometry x="60" width="60" height="30" as="geometry"/>
                </mxCell>
                <UserObject label="Mongo Charts" link="https://charts.mongodb.com/charts-xerxes-lgqel/public/dashboards/28b475cb-410d-4b2e-af52-4247a57b557d" id="92">
                    <mxCell style="rounded=0;whiteSpace=wrap;html=1;" parent="88" vertex="1">
                        <mxGeometry x="10" y="30" width="100" height="55" as="geometry"/>
                    </mxCell>
                </UserObject>
                <mxCell id="93" style="edgeStyle=none;html=1;exitX=0.5;exitY=0;exitDx=0;exitDy=0;entryX=0.25;entryY=1;entryDx=0;entryDy=0;" parent="1" source="91" target="7" edge="1">
                    <mxGeometry relative="1" as="geometry"/>
                </mxCell>
            </root>
        </mxGraphModel>
    </diagram>
</mxfile>